<svg width="67" height="67" viewBox="0 0 67 67" fill="none" xmlns="http://www.w3.org/2000/svg">
<path d="M18.0518 14.4149V14.2488H32.9987C38.9037 14.2488 43.5723 16.0018 47.0046 19.5079C50.4737 22.977 52.2083 27.6087 52.2083 33.403C52.2083 39.0496 50.3814 43.7366 46.7278 47.4641C43.0741 51.1547 38.4977 53 32.9987 53H18.0518V52.834H21.5394V14.4149H18.0518ZM32.5005 14.4149H27.2968V52.834H32.5559C36.837 52.834 40.1216 51.0809 42.4098 47.5749C44.6979 44.0688 45.842 39.4556 45.842 33.7351C45.842 28.273 44.6426 23.6783 42.2437 19.9508C39.8817 16.2602 36.634 14.4149 32.5005 14.4149Z" fill="#6E6D87"/>
<circle cx="33.5" cy="33.5" r="33.35" stroke="#6E6D87" stroke-width="0.3"/>
</svg>
